nColumns=19
nRows=54
DataType=double
version=3
OpenSimVersion=4.1
endheader
time	ground_force_1_vx	ground_force_1_vy	ground_force_1_vz	ground_force_1_px	ground_force_1_py	ground_force_1_pz	ground_force_1_mx	ground_force_1_my	ground_force_1_mz	ground_force_2_vx	ground_force_2_vy	ground_force_2_vz	ground_force_2_px	ground_force_2_py	ground_force_2_pz	ground_force_2_mx	ground_force_2_my	ground_force_2_mz
3.25	89.1785	748.24	-25.2486	1.3985	0	-0.427016	0	1.10771	0	-0.504618	0.426001	-0.0867911	1.86664	0	-0.569137	0	1.24336e-09	0
3.255	93.5481	746.18	-24.4029	1.39985	0	-0.428332	0	1.15483	0	-0.989571	0.907795	-0.224991	1.86912	0	-0.568315	0	4.2219e-09	0
3.26	97.9778	742.045	-23.4193	1.40125	0	-0.429779	0	1.20228	0	-1.99172	2.01611	-0.622201	1.87084	0	-0.567494	0	1.64322e-08	0
3.265	102.499	735.931	-22.1939	1.40274	0	-0.431384	0	1.24866	0	-3.9164	4.53721	-1.83147	1.87179	0	-0.566691	0	6.94707e-08	0
3.27	107.001	728.098	-20.7241	1.40431	0	-0.433133	0	1.29034	0	-5.16799	9.80825	-4.86236	1.87156	0	-0.566154	0	1.09961e-06	0
3.275	111.299	718.492	-18.8181	1.40595	0	-0.434959	0	1.32844	0	0.491342	19.0338	-7.37828	1.87089	0	-0.566281	0	1.08386e-05	0
3.28	115.359	706.962	-16.6992	1.40766	0	-0.436805	0	1.36814	0	10.1315	31.5573	-9.04411	1.87106	0	-0.566305	0	5.67867e-05	0
3.285	118.974	693.058	-14.3906	1.40945	0	-0.438648	0	1.4004	0	17.7945	49.8008	-10.5015	1.87159	0	-0.566234	0	0.000267093	0
3.29	122.018	676.658	-12.047	1.41133	0	-0.440464	0	1.39391	0	21.0427	86.7389	-13.4891	1.87208	0	-0.566118	0	0.00113351	0
3.295	124.427	657.811	-10.1312	1.41332	0	-0.44229	0	1.3331	0	15.8718	140.229	-15.8289	1.87249	0	-0.565995	0	0.00448469	0
3.3	125.896	636.339	-8.37434	1.41546	0	-0.444196	0	1.22849	0	7.81654	192.862	-17.4453	1.87303	0	-0.56593	0	0.0157099	0
3.305	126.342	612.221	-7.24736	1.4178	0	-0.446286	0	1.091	0	2.59606	234.982	-19.6821	1.87384	0	-0.565992	0	0.0452461	0
3.31	125.65	585.633	-6.47419	1.42036	0	-0.448618	0	0.940259	0	-4.41518	265.792	-20.9066	1.87503	0	-0.566234	0	0.103958	0
3.315	123.687	556.56	-5.57454	1.42312	0	-0.451082	0	0.794867	0	-13.5041	288.799	-20.9842	1.87672	0	-0.56672	0	0.188502	0
3.32	120.523	525.449	-4.84334	1.42597	0	-0.453503	0	0.64816	0	-22.3777	308.215	-20.2616	1.87894	0	-0.567423	0	0.277287	0
3.325	115.936	492.127	-3.68265	1.42882	0	-0.45561	0	0.48723	0	-30.8354	326.784	-18.199	1.88153	0	-0.568178	0	0.353485	0
3.33	109.758	456.542	-2.28904	1.43161	0	-0.457205	0	0.315167	0	-39.9092	347.352	-14.8194	1.88491	0	-0.568919	0	0.432911	0
3.335	102.451	419.097	-0.643237	1.43443	0	-0.458286	0	0.141079	0	-48.9345	375.897	-10.3921	1.89062	0	-0.569842	0	0.497428	0
3.34	94.0314	380.238	0.907318	1.43737	0	-0.458824	0	-0.0254711	0	-57.6298	415.377	-5.03946	1.89961	0	-0.570828	0	0.363711	0
3.345	85.2321	337.504	2.22338	1.44097	0	-0.45932	0	-0.147352	0	-67.5414	459.846	0.813188	1.91026	0	-0.571378	0	-0.082194	0
3.35	76.0526	288.547	3.04346	1.44564	0	-0.459779	0	-0.196997	0	-76.7274	500.703	6.39813	1.92029	0	-0.571392	0	-0.630363	0
3.355	64.7161	233.794	3.54694	1.45206	0	-0.460277	0	-0.139763	0	-84.913	538.523	10.9959	1.92972	0	-0.570734	0	-0.937558	0
3.36	51.7794	181.371	2.6912	1.45986	0	-0.45859	0	-0.0258323	0	-92.5861	575.619	14.5956	1.93885	0	-0.569447	0	-0.739494	0
3.365	41.3522	149.839	3.41993	1.46222	0	-0.458127	0	6.66308e-06	0	-98.8441	607.178	17.2663	1.94679	0	-0.568137	0	-0.11227	0
3.37	34.2737	118.696	1.68232	1.46332	0	-0.458211	0	3.85105e-11	0	-104.333	632.181	19.3643	1.95308	0	-0.567146	0	0.666934	0
3.375	22.2219	84.4004	1.4	1.46444	0	-0.458261	0	-1.77636e-15	0	-108.527	653.821	21.1977	1.95773	0	-0.566559	0	1.37918	0
3.38	-0.674406	40.4826	2.951	1.46521	0	-0.458212	0	0	0	-111.656	676.242	23.1931	1.96089	0	-0.566448	0	1.76091	0
3.385	-0.175574	0.238153	0.0322796	1.46613	0	-0.458289	0	6.93889e-18	0	-114.367	699.773	26.0121	1.96261	0	-0.56684	0	1.65957	0
3.39	0.00165316	-0.00168264	-0.00015511	1.46976	0	-0.458618	0	-2.71051e-20	0	-116.305	719.379	28.8207	1.96343	0	-0.567518	0	1.40379	0
3.395	0.00250972	-0.00237825	-0.000161473	1.47475	0	-0.458854	0	2.71051e-20	0	-117.252	734.121	31.5005	1.96393	0	-0.568268	0	1.23817	0
3.4	0.0069124	-0.00602974	-0.000172977	1.48064	0	-0.458963	0	-3.25261e-19	0	-117.356	747.332	34.05	1.9641	0	-0.569058	0	1.02936	0
3.405	0.000425151	-0.000332747	5.608e-06	1.48782	0	-0.458863	0	-1.86347e-20	0	-116.671	760.2	35.9217	1.96395	0	-0.569891	0	0.815439	0
3.41	8.11097e-05	-5.7875e-05	2.59808e-06	1.49644	0	-0.458594	0	-3.38813e-21	0	-115.125	771.61	37.1722	1.96365	0	-0.570749	0	0.685838	0
3.415	5.87159e-05	-3.87848e-05	2.29007e-06	1.50632	0	-0.458229	0	-8.89385e-21	0	-112.958	780.999	37.9984	1.96337	0	-0.571598	0	0.564847	0
3.42	4.78857e-05	-2.93571e-05	2.08238e-06	1.51744	0	-0.457772	0	3.81165e-21	0	-110.324	788.253	38.4228	1.96314	0	-0.572426	0	0.405569	0
3.425	3.3241e-05	-1.8944e-05	1.58431e-06	1.52987	0	-0.45721	0	2.37169e-20	0	-107.284	793.251	38.666	1.96298	0	-0.573227	0	0.217817	0
3.43	5.62105e-05	-3.0022e-05	2.8172e-06	1.54349	0	-0.45657	0	2.35475e-19	0	-104.042	795.866	38.8477	1.96292	0	-0.573991	0	0.0164111	0
3.435	0.000150291	-7.57157e-05	7.69908e-06	1.55819	0	-0.455874	0	4.15385e-18	0	-100.637	796.05	38.9802	1.96298	0	-0.574712	0	-0.185262	0
3.44	0.000143452	-6.85441e-05	7.39613e-06	1.57385	0	-0.455136	0	9.86624e-17	0	-97.0883	793.888	39.1102	1.96318	0	-0.575382	0	-0.374356	0
3.445	-0.000839375	0.000381994	-4.32656e-05	1.59038	0	-0.454363	0	1.78874e-15	0	-93.436	789.446	39.1674	1.96351	0	-0.576	0	-0.52789	0
3.45	-0.00104312	0.000454597	-5.32616e-05	1.60764	0	-0.453573	0	-6.71558e-15	0	-89.66	782.877	39.1596	1.96398	0	-0.576563	0	-0.631075	0
3.455	-0.000916333	0.000384269	-4.589e-05	1.62549	0	-0.452784	0	-5.78815e-16	0	-85.8313	774.304	39.0101	1.96458	0	-0.57707	0	-0.673705	0
3.46	-0.000773669	0.000313633	-3.76024e-05	1.6438	0	-0.452014	0	9.52907e-15	0	-81.966	763.875	38.7072	1.96529	0	-0.577522	0	-0.652237	0
3.465	-0.000666912	0.000262339	-3.12658e-05	1.66248	0	-0.451267	0	1.64862e-14	0	-78.1012	751.776	38.2241	1.9661	0	-0.57792	0	-0.570035	0
3.47	-0.000611612	0.000234405	-2.74562e-05	1.68143	0	-0.450554	0	2.19518e-14	0	-74.2553	738.212	37.5948	1.96698	0	-0.578271	0	-0.440821	0
3.475	-0.000600907	0.000225118	-2.56712e-05	1.70057	0	-0.449882	0	2.85977e-14	0	-70.4621	723.463	36.8669	1.96791	0	-0.578581	0	-0.26794	0
3.48	-0.000638829	0.000234683	-2.57924e-05	1.71984	0	-0.449255	0	3.87313e-14	0	-66.7207	707.89	36.112	1.96889	0	-0.578853	0	-0.0515874	0
3.485	-0.000733103	0.00026476	-2.78156e-05	1.73919	0	-0.448674	0	5.66052e-14	0	-63.0691	691.752	35.4384	1.96992	0	-0.57909	0	0.177172	0
3.49	-0.000908546	0.000323348	-3.21793e-05	1.75858	0	-0.448143	0	8.93818e-14	0	-59.5246	675.264	34.879	1.97097	0	-0.579298	0	0.378788	0
3.495	-0.00120852	0.000424637	-3.97435e-05	1.778	0	-0.447658	0	1.54341e-13	0	-56.1372	658.678	34.514	1.97204	0	-0.579484	0	0.537011	0
3.5	-0.00171885	0.000597302	-5.22013e-05	1.79742	0	-0.44722	0	2.89184e-13	0	-52.9765	642.219	34.3265	1.97311	0	-0.57965	0	0.646634	0
3.505	-0.00259167	0.00089179	-7.24244e-05	1.81686	0	-0.446823	0	5.88856e-13	0	-50.0751	626.054	34.3136	1.97416	0	-0.579796	0	0.714484	0
3.51	-0.00411103	0.00140244	-0.000105222	1.83629	0	-0.446466	0	1.28788e-12	0	-47.4832	610.294	34.3942	1.97519	0	-0.579915	0	0.756435	0
3.515	-0.00679061	0.00229889	-0.000158608	1.85574	0	-0.446146	0	3.00673e-12	0	-45.1697	595.077	34.4551	1.9762	0	-0.579999	0	0.772364	0
